<svg width="505" height="312" viewBox="0 0 505 312" fill="none" xmlns="http://www.w3.org/2000/svg">
<g filter="url(#filter0_ddd_7_346)">
<path d="M194.425 20.3262C194.425 24.7695 193.684 29.3838 192.203 34.1689C190.836 38.8402 189.241 43.1126 187.418 46.9863C182.633 58.0378 177.164 68.6904 171.012 78.9443C164.973 89.0843 158.479 99.1104 151.529 109.022C149.706 111.529 147.257 114.548 144.181 118.08C141.218 121.498 137.971 125.201 134.439 129.188C130.908 133.176 127.319 137.335 123.673 141.664C120.027 145.993 116.609 150.323 113.419 154.652C110.229 158.868 107.438 162.969 105.045 166.957C102.766 170.831 101.228 174.363 100.431 177.553C99.6331 180.401 99.2344 183.363 99.2344 186.439C99.2344 189.516 99.2344 192.364 99.2344 194.984C99.2344 197.719 99.2913 201.649 99.4053 206.776C99.6331 211.789 99.861 217.429 100.089 223.695C100.431 229.848 100.886 236.285 101.456 243.007C102.026 249.729 102.652 256.109 103.336 262.147C104.133 268.186 105.045 273.541 106.07 278.212C107.21 282.997 108.463 286.529 109.83 288.808C110.058 289.263 110.286 289.719 110.514 290.175C110.742 290.631 110.855 291.143 110.855 291.713C110.855 292.51 110.571 293.137 110.001 293.593C109.545 294.049 108.976 294.39 108.292 294.618C107.608 294.846 106.925 294.96 106.241 294.96C105.558 295.074 104.988 295.131 104.532 295.131C102.026 295.131 99.5762 294.903 97.1836 294.447C94.9049 293.992 92.6833 293.422 90.5186 292.738C87.1006 291.599 84.4232 289.89 82.4863 287.611C80.5495 285.333 79.0684 282.712 78.043 279.75C77.0176 276.902 76.391 273.826 76.1631 270.521C75.9352 267.331 75.8213 264.198 75.8213 261.122C75.8213 255.312 76.0492 248.931 76.5049 241.981C76.9606 235.032 77.5303 228.025 78.2139 220.961C79.0114 213.783 79.9229 206.719 80.9482 199.77C81.9736 192.82 83.056 186.326 84.1953 180.287C83.2839 178.236 81.5749 175.616 79.0684 172.426C76.6758 169.122 73.9414 165.761 70.8652 162.343C67.903 158.811 64.9977 155.45 62.1494 152.26C59.3011 149.07 57.0794 146.506 55.4844 144.569C50.0156 137.961 44.4899 130.84 38.9072 123.207C33.4385 115.574 28.4824 107.598 24.0391 99.2812C19.5957 90.8503 15.9499 82.1914 13.1016 73.3047C10.3672 64.418 9 55.4173 9 46.3027C9 39.5807 10.0824 33.2005 12.2471 27.1621C14.5257 21.1237 18.1146 15.9398 23.0137 11.6104C24.0391 10.6989 25.3493 9.61654 26.9443 8.36328C28.5394 6.99609 30.1914 5.74284 31.9004 4.60352C33.7233 3.35026 35.5462 2.32487 37.3691 1.52734C39.1921 0.615885 40.8441 0.160156 42.3252 0.160156C44.6038 0.160156 45.7432 1.41341 45.7432 3.91992C45.7432 4.26172 45.7432 4.66048 45.7432 5.11621C45.7432 5.57194 45.6292 6.02767 45.4014 6.4834C44.1481 11.9521 43.1797 17.3639 42.4961 22.7188C41.8125 28.0736 41.4707 33.5993 41.4707 39.2959C41.4707 52.2842 42.9518 64.361 45.9141 75.5264C48.8763 86.6917 52.807 97.4583 57.7061 107.826C62.6051 118.194 68.1878 128.391 74.4541 138.417C80.7204 148.329 87.1576 158.469 93.7656 168.837C97.9811 162.457 102.538 155.678 107.438 148.5C112.337 141.322 117.236 133.917 122.135 126.283C127.034 118.65 131.762 110.845 136.319 102.87C140.991 94.7809 145.092 86.6917 148.624 78.6025C152.156 70.3994 154.947 62.2533 156.998 54.1641C159.163 45.9609 160.245 37.8717 160.245 29.8965C160.245 26.9342 160.017 24.0859 159.562 21.3516C159.22 18.6172 158.593 15.9398 157.682 13.3193V11.9521C157.682 10.2432 158.365 8.87598 159.732 7.85059C161.214 6.8252 162.866 6.02767 164.688 5.45801C166.625 4.88835 168.562 4.48958 170.499 4.26172C172.55 4.03385 174.145 3.91992 175.284 3.91992C178.132 3.91992 180.696 4.20475 182.975 4.77441C185.367 5.23014 187.418 6.08464 189.127 7.33789C190.836 8.59115 192.146 10.3001 193.058 12.4648C193.969 14.5156 194.425 17.1361 194.425 20.3262ZM253.897 185.585C253.897 193.56 252.587 200.966 249.967 207.802C247.346 214.638 243.644 220.562 238.858 225.575C234.073 230.588 228.32 234.519 221.598 237.367C214.99 240.215 207.641 241.64 199.552 241.64C192.374 241.64 185.88 240.272 180.069 237.538C174.373 234.918 169.474 231.329 165.372 226.771C161.271 222.214 158.137 216.916 155.973 210.878C153.808 204.726 152.726 198.174 152.726 191.225C152.726 185.414 153.523 179.888 155.118 174.647C156.827 169.407 159.163 164.564 162.125 160.121C165.087 155.564 168.619 151.405 172.721 147.646C176.822 143.772 181.266 140.297 186.051 137.221L188.102 138.759C183.316 144.341 179.557 150.494 176.822 157.216C174.088 163.938 172.721 171.059 172.721 178.578C172.721 184.047 173.518 189.63 175.113 195.326C176.822 200.909 179.272 206.036 182.462 210.707C185.652 215.378 189.64 219.195 194.425 222.157C199.21 225.119 204.679 226.601 210.831 226.601C214.705 226.601 218.351 225.803 221.769 224.208C225.187 222.613 228.149 220.448 230.655 217.714C233.276 214.979 235.326 211.903 236.808 208.485C238.403 204.953 239.2 201.308 239.2 197.548C239.2 193.902 238.631 190.37 237.491 186.952C236.466 183.42 234.985 180.173 233.048 177.211C231.111 174.135 228.775 171.4 226.041 169.008C223.307 166.501 220.344 164.451 217.154 162.855C215.331 161.944 213.565 161.26 211.856 160.805C210.261 160.349 208.495 159.836 206.559 159.267C205.761 159.153 204.907 158.982 203.995 158.754C203.084 158.412 202.229 158.07 201.432 157.729C200.634 157.273 199.951 156.703 199.381 156.02C198.811 155.336 198.526 154.481 198.526 153.456C198.526 151.405 199.267 149.525 200.748 147.816C202.229 146.107 203.995 144.626 206.046 143.373C208.097 142.006 210.261 140.98 212.54 140.297C214.819 139.499 216.812 139.101 218.521 139.101C224.332 139.101 229.459 140.582 233.902 143.544C238.346 146.506 242.049 150.266 245.011 154.823C247.973 159.381 250.195 164.394 251.676 169.862C253.157 175.331 253.897 180.572 253.897 185.585ZM433.512 134.828C433.512 141.094 432.885 148.158 431.632 156.02C430.379 163.767 428.556 171.628 426.163 179.604C423.884 187.579 421.093 195.326 417.789 202.846C414.599 210.365 410.953 217.087 406.852 223.012C402.864 228.822 398.535 233.493 393.863 237.025C389.306 240.557 384.521 242.323 379.508 242.323C376.546 242.323 373.64 240.557 370.792 237.025C368.058 233.607 365.38 229.107 362.76 223.524C360.253 217.942 357.918 211.732 355.753 204.896C353.588 198.061 351.594 191.282 349.771 184.56C348.062 190.826 346.183 197.377 344.132 204.213C342.081 211.049 339.575 217.315 336.612 223.012C333.65 228.594 330.175 233.209 326.188 236.854C322.2 240.5 317.472 242.323 312.003 242.323C308.471 242.323 305.224 240.671 302.262 237.367C299.413 234.063 296.793 229.905 294.4 224.892C292.122 219.765 290.014 214.125 288.077 207.973C286.254 201.706 284.659 195.668 283.292 189.857C282.039 183.933 280.956 178.578 280.045 173.793C279.133 169.008 278.45 165.476 277.994 163.197C277.88 162.855 277.709 162.001 277.481 160.634C277.254 159.267 276.969 157.842 276.627 156.361C276.285 154.88 275.829 153.57 275.26 152.431C274.804 151.177 274.348 150.551 273.893 150.551C271.956 150.551 269.677 151.177 267.057 152.431C264.55 153.57 262.499 154.595 260.904 155.507L259.879 153.798C261.474 152.089 263.411 150.323 265.689 148.5C268.082 146.563 270.589 144.797 273.209 143.202C275.943 141.607 278.678 140.297 281.412 139.271C284.26 138.246 286.881 137.733 289.273 137.733C291.324 137.733 293.147 138.645 294.742 140.468C296.451 142.177 297.875 144.398 299.015 147.133C300.154 149.867 301.122 152.943 301.92 156.361C302.831 159.665 303.515 162.969 303.971 166.273C304.54 169.464 304.939 172.369 305.167 174.989C305.509 177.61 305.794 179.604 306.021 180.971C306.135 181.882 306.42 183.762 306.876 186.61C307.332 189.345 307.901 192.592 308.585 196.352C309.269 199.997 310.009 203.871 310.807 207.973C311.718 211.96 312.687 215.663 313.712 219.081C314.737 222.385 315.763 225.176 316.788 227.455C317.927 229.62 319.01 230.702 320.035 230.702C323.225 230.702 326.188 228.708 328.922 224.721C331.656 220.619 334.106 215.549 336.271 209.511C338.549 203.472 340.543 197.035 342.252 190.199C343.961 183.363 345.328 177.097 346.354 171.4C345.214 166.843 344.246 162.799 343.448 159.267C342.651 155.621 341.967 152.715 341.397 150.551C341.17 150.095 341.056 149.298 341.056 148.158C341.056 146.563 341.625 145.082 342.765 143.715C343.904 142.348 345.328 141.151 347.037 140.126C348.746 139.101 350.512 138.303 352.335 137.733C354.158 137.164 355.753 136.879 357.12 136.879C359.399 136.879 361.279 137.961 362.76 140.126C364.241 142.177 365.437 144.626 366.349 147.475C367.26 150.323 367.944 153.228 368.399 156.19C368.969 159.039 369.425 161.26 369.767 162.855C369.881 163.653 370.222 165.875 370.792 169.521C371.476 173.166 372.33 177.496 373.355 182.509C374.381 187.522 375.463 192.877 376.603 198.573C377.856 204.156 379.109 209.34 380.362 214.125C381.729 218.91 383.04 222.898 384.293 226.088C385.546 229.164 386.686 230.702 387.711 230.702C390.787 230.702 393.635 229.677 396.256 227.626C398.876 225.461 401.212 222.67 403.263 219.252C405.427 215.72 407.25 211.732 408.731 207.289C410.326 202.732 411.637 198.004 412.662 193.104C413.801 188.205 414.599 183.363 415.055 178.578C415.624 173.679 415.909 169.122 415.909 164.906C415.909 161.374 415.681 157.558 415.226 153.456C414.77 149.241 414.029 145.082 413.004 140.98C411.979 136.879 410.611 132.948 408.902 129.188C407.307 125.315 405.37 122.011 403.092 119.276C400.813 116.428 398.193 114.263 395.23 112.782C392.268 111.301 388.907 110.788 385.147 111.244L384.806 109.706C387.768 108.225 390.901 107.086 394.205 106.288C397.509 105.491 400.927 105.092 404.459 105.092C414.143 105.092 421.378 107.769 426.163 113.124C431.062 118.365 433.512 125.6 433.512 134.828ZM473.502 223.695C473.502 221.531 473.901 219.48 474.698 217.543C475.496 215.606 476.578 213.954 477.945 212.587C479.312 211.106 480.965 209.966 482.901 209.169C484.838 208.371 486.946 207.973 489.225 207.973C491.389 207.973 493.44 208.371 495.377 209.169C497.314 209.966 498.966 211.106 500.333 212.587C501.814 213.954 502.953 215.606 503.751 217.543C504.549 219.48 504.947 221.531 504.947 223.695C504.947 225.86 504.549 227.911 503.751 229.848C502.953 231.785 501.814 233.493 500.333 234.975C498.966 236.342 497.314 237.424 495.377 238.222C493.44 239.019 491.389 239.418 489.225 239.418C487.06 239.418 485.009 239.019 483.072 238.222C481.135 237.424 479.426 236.342 477.945 234.975C476.578 233.493 475.496 231.785 474.698 229.848C473.901 227.911 473.502 225.86 473.502 223.695ZM478.971 14.8574C478.971 13.0345 479.597 11.4395 480.851 10.0723C482.104 8.70508 483.585 7.56576 485.294 6.6543C487.003 5.74284 488.712 5.05924 490.421 4.60352C492.244 4.14779 493.668 3.91992 494.693 3.91992C496.744 3.91992 498.396 4.37565 499.649 5.28711C501.017 6.08464 501.7 8.42025 501.7 12.2939C501.7 16.6234 501.529 22.7188 501.188 30.5801C500.846 38.4414 500.333 47.3281 499.649 57.2402C499.08 67.1523 498.396 77.805 497.599 89.1982C496.915 100.478 496.174 111.814 495.377 123.207C494.579 134.486 493.782 145.481 492.984 156.19C492.187 166.786 491.503 176.299 490.934 184.73H486.49C485.579 167.982 484.667 152.032 483.756 136.879C482.844 121.612 482.047 106.972 481.363 92.958C480.68 78.9443 480.11 65.5003 479.654 52.626C479.199 39.6377 478.971 27.0482 478.971 14.8574Z" fill="white"/>
</g>
<defs>
<filter id="filter0_ddd_7_346" x="0" y="0.160156" width="504.947" height="310.971" filterUnits="userSpaceOnUse" color-interpolation-filters="sRGB">
<feFlood flood-opacity="0" result="BackgroundImageFix"/>
<feColorMatrix in="SourceAlpha" type="matrix" values="0 0 0 0 0 0 0 0 0 0 0 0 0 0 0 0 0 0 127 0" result="hardAlpha"/>
<feOffset dx="-5" dy="4"/>
<feGaussianBlur stdDeviation="2"/>
<feComposite in2="hardAlpha" operator="out"/>
<feColorMatrix type="matrix" values="0 0 0 0 0 0 0 0 0 0 0 0 0 0 0 0 0 0 0.25 0"/>
<feBlend mode="normal" in2="BackgroundImageFix" result="effect1_dropShadow_7_346"/>
<feColorMatrix in="SourceAlpha" type="matrix" values="0 0 0 0 0 0 0 0 0 0 0 0 0 0 0 0 0 0 127 0" result="hardAlpha"/>
<feOffset dx="-5" dy="8"/>
<feGaussianBlur stdDeviation="2"/>
<feComposite in2="hardAlpha" operator="out"/>
<feColorMatrix type="matrix" values="0 0 0 0 0 0 0 0 0 0 0 0 0 0 0 0 0 0 0.25 0"/>
<feBlend mode="normal" in2="effect1_dropShadow_7_346" result="effect2_dropShadow_7_346"/>
<feColorMatrix in="SourceAlpha" type="matrix" values="0 0 0 0 0 0 0 0 0 0 0 0 0 0 0 0 0 0 127 0" result="hardAlpha"/>
<feOffset dx="-5" dy="12"/>
<feGaussianBlur stdDeviation="2"/>
<feComposite in2="hardAlpha" operator="out"/>
<feColorMatrix type="matrix" values="0 0 0 0 0 0 0 0 0 0 0 0 0 0 0 0 0 0 0.1 0"/>
<feBlend mode="normal" in2="effect2_dropShadow_7_346" result="effect3_dropShadow_7_346"/>
<feBlend mode="normal" in="SourceGraphic" in2="effect3_dropShadow_7_346" result="shape"/>
</filter>
</defs>
</svg>
